<?xml version="1.0" encoding="UTF-8"?>
<svg width="504px" height="135px" viewBox="0 0 504 135" version="1.1" xmlns="http://www.w3.org/2000/svg" xmlns:xlink="http://www.w3.org/1999/xlink">
    <!-- Generator: Sketch 64 (93537) - https://sketch.com -->
    <title>Slice</title>
    <desc>Created with Sketch.</desc>
    <g id="Page-1" stroke="none" stroke-width="1" fill="none" fill-rule="evenodd">
        <path d="M82.59,68.4 C82.59,54.13 82.59,39.86 82.59,25.59 C82.59,24.56 82.64,23.53 82.2,22.54 C81.56,21.06 80.43,20.33 78.87,20.22 C77.21,20.1 75.92,20.74 75.11,22.24 C74.51,23.34 74.54,24.53 74.54,25.73 C74.55,44.39 74.5,63.04 74.56,81.7 C74.59,92.15 67.77,102.22 57.21,105.07 C48.58,107.4 38.37,104.39 33.09,97.37 C29.69,92.86 27.51,87.78 27.55,81.93 C27.61,73.16 27.56,64.39 27.56,55.62 C27.56,54.98 27.57,54.34 27.56,53.71 C27.5,50.73 25.91,48.63 23.67,48.55 C21.38,48.47 19.57,50.62 19.54,53.72 C19.48,60.58 19.32,67.44 19.59,74.29 C19.76,78.56 18.29,81.85 15.39,84.74 C13.03,87.09 6.78,87.08 4.28,84.76 C1.24,81.93 -0.22,78.56 -0.09,74.37 C0.17,66.09 -0.62,57.77 0.31,49.52 C1.31,40.54 7.31,32.22 16.98,29.41 C25.83,26.84 36.09,29.81 41.58,36.97 C45.14,41.61 47.18,46.91 47.16,52.9 C47.12,61.83 47.15,70.76 47.15,79.69 C47.15,80.33 47.11,80.97 47.18,81.6 C47.43,83.92 49.35,85.88 51.26,85.82 C53.12,85.76 54.85,83.85 54.93,81.51 C55.03,78.48 54.97,75.45 54.97,72.42 C54.97,56.87 55.07,41.33 54.93,25.78 C54.85,16.8 58.12,9.4 65.11,3.92 C72.91,-2.2 85.9,-1.63 93.17,4.93 C100,11.09 102.27,18.51 102.23,27.32 C102.11,54.27 102.18,81.22 102.19,108.16 C102.19,108.96 102.14,109.76 102.22,110.55 C102.43,112.74 104.1,114.24 106.2,114.19 C108.21,114.14 109.82,112.7 109.95,110.58 C110.08,108.59 110,106.6 110,104.6 C110,97.11 110,89.61 110,82.12 C110,77.56 112.08,73.99 116.01,72.01 C122.66,68.66 129.3,74.58 129.45,80.35 C129.73,91.26 129.78,102.2 129.37,113.11 C129.13,119.27 125.89,124.24 121.47,128.7 C113.96,136.27 101.1,136.22 94.08,131.39 C86.94,126.48 82.66,119.68 82.61,110.76 C82.53,96.62 82.59,82.51 82.59,68.4 Z" id="Path" fill="#7274F5" fill-rule="nonzero"></path>
        <path d="M173.56,54.25 C176.59,49.07 180.93,46.54 186.64,46.7 C192.86,46.87 195.57,51.39 197.94,56.56 C199.17,54.97 200.25,53.73 201.17,52.37 C206.23,44.81 219.35,45.09 225.12,52.25 C229.24,57.36 230.85,62.91 230.74,69.27 C230.62,76.28 230.64,83.3 230.75,90.32 C230.79,92.66 229.78,94.08 227.84,95.06 C224.7,96.64 221.53,96.57 218.4,95.08 C216.36,94.11 215.33,92.56 215.36,90.14 C215.46,83.05 215.37,75.95 215.41,68.85 C215.42,66.87 214.95,65.08 214.02,63.37 C212.84,61.22 210.87,60.42 208.63,60.52 C206.48,60.62 204.72,61.54 203.74,63.73 C202.9,65.6 202.47,67.47 202.48,69.5 C202.5,76.6 202.41,83.69 202.52,90.79 C202.56,93.41 201.35,94.82 199.04,95.52 C197.51,95.98 195.95,96.32 194.33,96.21 C188.7,95.84 187.17,94.24 187.16,88.72 C187.16,82.1 187.13,75.49 187.18,68.87 C187.19,66.89 186.66,65.13 185.71,63.41 C184.51,61.24 182.49,60.53 180.29,60.59 C178.15,60.66 176.36,61.56 175.42,63.8 C174.66,65.6 174.23,67.41 174.24,69.35 C174.25,76.37 174.18,83.38 174.28,90.4 C174.31,92.64 173.35,94.02 171.52,94.99 C168.59,96.54 165.54,96.59 162.5,95.42 C160.13,94.51 158.88,92.85 158.899764,90.12 C158.98,77.92 158.93,65.72 158.94,53.53 C158.94,50.01 160.16,48.48 163.58,47.63 C163.66,47.61 163.74,47.61 163.82,47.59 C169.5,46.26 172.63,48.28 173.56,54.25 Z" id="Path" fill="#7274F5" fill-rule="nonzero"></path>
        <path d="M474.33,53.83 C475.82,53.05 475.99,51.73 476.77,50.86 C482.16,44.81 492.47,45.75 497.54,52.14 C502.11,57.9 503.59,64.22 503.45,71.28 C503.33,77.65 503.43,84.03 503.42,90.41 C503.41,93.32 502.46,94.61 499.69,95.49 C497.85,96.07 495.97,96.32 494.03,96.01 C489.28,95.26 488.12,93.91 488.12,89.11 C488.12,82.57 488.04,76.04 488.16,69.5 C488.21,66.85 487.22,64.66 485.71,62.71 C484.3,60.89 482.21,60.27 479.91,60.66 C477.13,61.13 475.75,63.13 474.87,65.54 C474.43,66.73 474.33,68.01 474.33,69.3 C474.36,76.31 474.28,83.33 474.38,90.34 C474.41,92.57 473.47,93.99 471.63,94.94 C468.62,96.49 465.49,96.58 462.38,95.31 C460.12,94.38 458.98,92.74 458.989935,90.12 C459.05,68.6 459.02,47.08 459.03,25.56 C459.03,22.28 460.21,20.78 463.39,19.96 C465.19,19.5 467.01,19.36 468.84,19.75 C474.14,20.88 474.44,22.78 474.38,26.31 C474.24,35.38 474.33,44.45 474.33,53.83 Z" id="Path" fill="#27282D" fill-rule="nonzero"></path>
        <path d="M336.68,76.41 C336.48,79.46 337.79,81.75 340.44,83.2 C344.17,85.23 348.09,85.15 352,83.69 C353.49,83.14 354.87,82.3 356.33,81.68 C359.2,80.48 361.36,81.07 363.05,83.45 C365.03,86.22 365.09,89.12 363.18,91.34 C362.18,92.5 360.99,93.45 359.6,94.09 C349.27,98.81 339.16,98.43 329.54,92.3 C324.12,88.84 321.79,83.33 321.32,77.13 C321.03,73.26 321.03,69.34 321.47,65.44 C321.93,61.4 323.6,58 326.24,54.98 C334.14,45.95 347.14,44.03 356.84,50.49 C363.19,54.72 366.57,63.18 364.76,70.32 C363.91,73.67 361.71,75.76 358.27,75.87 C352.06,76.07 345.84,76.02 339.63,76.1 C338.7,76.09 337.73,75.87 336.68,76.41 Z M336.61,67.01 C340.35,67.01 343.83,67.02 347.31,67.01 C350.69,67 351.54,65.87 350.64,62.59 C350.17,60.86 349,59.69 347.38,59.02 C344.49,57.83 341.63,57.89 338.96,59.64 C336.35,61.35 336.46,64 336.61,67.01 Z" id="Shape" fill="#27282D" fill-rule="nonzero"></path>
        <path d="M394.18,68.15 C394.91,62.81 392.21,59.56 387.17,59.46 C383.83,59.39 380.72,59.99 377.86,61.91 C375.63,63.41 373.34,62.73 371.91,60.47 C369.02,55.92 370.33,51.52 375.24,49.31 C382.07,46.24 389.14,45.92 396.28,47.84 C403.65,49.83 409.31,56.71 409.58,64.4 C409.89,73.32 409.74,82.25 409.76,91.17 C409.76,91.72 409.69,92.3 409.48,92.8 C408.49,95.14 404.62,96.54 400.82,96 C397.49,95.52 395.88,93.99 395.44,90.93 C395.4,90.64 395.32,90.36 395.21,89.82 C393.74,91.1 392.49,92.29 391.13,93.36 C385.91,97.47 380.21,98.37 374.12,95.59 C370.77,94.06 368.75,91.29 368.21,87.68 C366.74,77.83 370.14,70.95 380.68,69.05 C385.17,68.25 389.69,68.18 394.18,68.15 Z M394.22,76.1 C391.32,76.11 388.39,76.05 385.68,77.35 C383.44,78.43 382.59,81.15 383.67,83.47 C384.56,85.38 386.9,86 389.21,84.95 C392.35,83.51 394.55,79.73 394.22,76.1 Z" id="Shape" fill="#27282D" fill-rule="nonzero"></path>
        <path d="M237,65 C237,61.57 237,58.14 237,54.72 C237,49.5 239.75,46.93 245.03,47.2 C250.12,47.46 252.31,49.75 252.31,54.82 C252.31,61.6 252.3,68.37 252.32,75.15 C252.33,79.75 255.56,83.38 259.55,83.34 C263.47,83.3 266.58,79.79 266.62,75.19 C266.68,68.41 266.64,61.64 266.64,54.86 C266.64,49.59 268.24,47.79 273.52,47.26 C275.45,47.07 277.34,47.44 279.09,48.29 C280.97,49.21 281.97,50.65 281.96,52.84 C281.92,60.65 282.07,68.47 281.91,76.27 C281.65,88.69 269.44,98.7 257.06,97.02 C250.64,96.15 245.33,93.44 241.38,88.38 C238.75,85.01 237.09,81.12 237.02,76.73 C236.96,72.81 237.01,68.91 237,65 C237.01,65 237,65 237,65 Z" id="Path" fill="#7274F5" fill-rule="nonzero"></path>
        <path d="M304,47.63 C307.38,47.63 310.48,47.63 313.57,47.63 C317,47.64 318.15,48.59 318.75,51.89 C319.6,56.59 317.61,59 312.9,59 C310.04,59 307.17,59 304,59 C304,62.07 304,65 304,67.93 C304,71.6 303.98,75.26 304.01,78.93 C304.04,82.35 304.8,83.08 308.27,83.18 C310.1,83.23 311.95,83.13 313.76,83.37 C316.82,83.78 318.69,86.36 318.78,89.97 C318.86,92.95 316.98,95.91 314.27,96.21 C308.46,96.86 302.66,96.82 297.09,94.53 C291.22,92.12 289.05,87.31 288.79,81.45 C288.56,76.52 288.69,71.57 288.68,66.63 C288.67,55.55 288.68,44.48 288.68,33.4 C288.68,28.73 290.02,27.17 294.66,26.45 C296.01,26.24 297.36,26.29 298.7,26.59 C302.89,27.54 304,28.9 304,33.17 C304,37.86 304,42.55 304,47.63 Z" id="Path" fill="#27282D" fill-rule="nonzero"></path>
        <path d="M414.99,72.03 C415.12,69.73 415.2,67.42 415.38,65.12 C416.1,55.97 422.64,47.82 433.04,46.96 C438.69,46.49 444.18,46.7 449.39,49.25 C452.08,50.57 454.08,52.63 453.95,55.66 C453.82,58.78 452.36,61.41 449.2,62.83 C448.18,63.29 447.57,63.24 446.64,62.72 C443.66,61.06 440.45,60.23 436.99,60.61 C433.22,61.03 431.29,62.61 430.73,66.33 C430.15,70.2 430.2,74.12 430.71,78 C431.07,80.74 432.79,82.43 435.5,82.98 C438.71,83.64 441.8,83.38 444.78,81.81 C448.48,79.87 451.55,80.54 453.35,83.88 C455.53,87.92 455.05,90.77 451.71,93.12 C445.4,97.55 438.31,97.72 431.06,96.51 C425.53,95.58 420.94,92.94 418.12,88 C416.01,84.3 415.17,80.14 415.11,75.86 C415.09,74.59 415.11,73.31 415.11,72.03 C415.06,72.04 415.03,72.04 414.99,72.03 Z" id="Path" fill="#27282D" fill-rule="nonzero"></path>
        <path d="M9.9,97.8398465 C15.4,97.87 19.65,102.28 19.73,108.04 C19.81,113.45 15.16,117.98 9.57,117.93 C4.15,117.88 -0.26,113.19 -0.15,107.6 C-0.04,102.18 4.45,97.81 9.9,97.8398465 Z" id="Path" fill="#79FAF1" fill-rule="nonzero"></path>
    </g>
</svg>