<?xml version="1.0" encoding="UTF-8"?>
<svg width="765px" height="146px" viewBox="0 0 765 146" version="1.1" xmlns="http://www.w3.org/2000/svg" xmlns:xlink="http://www.w3.org/1999/xlink">
    <!-- Generator: Sketch 64 (93537) - https://sketch.com -->
    <title>MuTeach</title>
    <desc>Created with Sketch.</desc>
    <g stroke="none" stroke-width="1" fill="none" fill-rule="evenodd">
        <path d="M29.4,142.8 L29.4,42.6 L29.8,42.6 L64.8,142.8 L89,142.8 L124,41.6 L124.4,41.6 L124.4,142.8 L153.8,142.8 L153.8,-1.42108547e-14 L109.6,-1.42108547e-14 L78,98.2 L77.6,98.2 L44.2,-1.42108547e-14 L0,-1.42108547e-14 L0,142.8 L29.4,142.8 Z M207.9,145.4 C213.9,145.4 219.766667,144.066667 225.5,141.4 C231.233333,138.733333 235.9,134.4 239.5,128.4 L240.1,128.4 L240.1,142.8 L267.1,142.8 L267.1,47.4 L238.7,47.4 L238.7,93.6 C238.7,104.133333 236.966667,111.7 233.5,116.3 C230.033333,120.9 224.433333,123.2 216.7,123.2 C209.9,123.2 205.166667,121.1 202.5,116.9 C199.833333,112.7 198.5,106.333333 198.5,97.8 L198.5,47.4 L170.1,47.4 L170.1,103 C170.1,109.4 170.666667,115.233333 171.8,120.5 C172.933333,125.766667 174.9,130.233333 177.7,133.9 C180.5,137.566667 184.333333,140.4 189.2,142.4 C194.066667,144.4 200.3,145.4 207.9,145.4 Z M322.4,142.8 L322.4,26.4 L365.2,26.4 L365.2,-1.42108547e-14 L248.2,-1.42108547e-14 L248.2,26.4 L291,26.4 L291,142.8 L322.4,142.8 Z M395.9,145.4 C407.633333,145.4 417.633333,142.733333 425.9,137.4 C434.166667,132.066667 440.3,123.2 444.3,110.8 L419.3,110.8 C418.366667,114 415.833333,117.033333 411.7,119.9 C407.566667,122.766667 402.633333,124.2 396.9,124.2 C388.9,124.2 382.766667,122.133333 378.5,118 C374.233333,113.866667 371.9,107.2 371.5,98 L446.1,98 C446.633333,90 445.966667,82.3333333 444.1,75 C442.233333,67.6666667 439.2,61.1333333 435,55.4 C430.8,49.6666667 425.433333,45.1 418.9,41.7 C412.366667,38.3 404.7,36.6 395.9,36.6 C388.033333,36.6 380.866667,38 374.4,40.8 C367.933333,43.6 362.366667,47.4333333 357.7,52.3 C353.033333,57.1666667 349.433333,62.9333333 346.9,69.6 C344.366667,76.2666667 343.1,83.4666667 343.1,91.2 C343.1,99.2 344.333333,106.533333 346.8,113.2 C349.266667,119.866667 352.766667,125.6 357.3,130.4 C361.833333,135.2 367.366667,138.9 373.9,141.5 C380.433333,144.1 387.766667,145.4 395.9,145.4 Z M417.7,80 L371.5,80 C371.633333,78 372.066667,75.7333333 372.8,73.2 C373.533333,70.6666667 374.8,68.2666667 376.6,66 C378.4,63.7333333 380.8,61.8333333 383.8,60.3 C386.8,58.7666667 390.566667,58 395.1,58 C402.033333,58 407.2,59.8666667 410.6,63.6 C414,67.3333333 416.366667,72.8 417.7,80 Z M485.4,145.4 C491.8,145.4 498.066667,144.466667 504.2,142.6 C510.333333,140.733333 515.666667,137.466667 520.2,132.8 C520.333333,134.533333 520.566667,136.233333 520.9,137.9 C521.233333,139.566667 521.666667,141.2 522.2,142.8 L522.2,142.8 L551,142.8 C549.666667,140.666667 548.733333,137.466667 548.2,133.2 C547.666667,128.933333 547.4,124.466667 547.4,119.8 L547.4,119.8 L547.4,66 C547.4,59.7333333 546,54.7 543.2,50.9 C540.4,47.1 536.8,44.1333333 532.4,42 C528,39.8666667 523.133333,38.4333333 517.8,37.7 C512.466667,36.9666667 507.2,36.6 502,36.6 C496.266667,36.6 490.566667,37.1666667 484.9,38.3 C479.233333,39.4333333 474.133333,41.3333333 469.6,44 C465.066667,46.6666667 461.333333,50.2 458.4,54.6 C455.466667,59 453.8,64.5333333 453.4,71.2 L453.4,71.2 L481.8,71.2 C482.333333,65.6 484.2,61.6 487.4,59.2 C490.6,56.8 495,55.6 500.6,55.6 C503.133333,55.6 505.5,55.7666667 507.7,56.1 C509.9,56.4333333 511.833333,57.1 513.5,58.1 C515.166667,59.1 516.5,60.5 517.5,62.3 C518.5,64.1 519,66.5333333 519,69.6 C519.133333,72.5333333 518.266667,74.7666667 516.4,76.3 C514.533333,77.8333333 512,79 508.8,79.8 C505.6,80.6 501.933333,81.2 497.8,81.6 C493.666667,82 489.466667,82.5333333 485.2,83.2 C480.933333,83.8666667 476.7,84.7666667 472.5,85.9 C468.3,87.0333333 464.566667,88.7333333 461.3,91 C458.033333,93.2666667 455.366667,96.3 453.3,100.1 C451.233333,103.9 450.2,108.733333 450.2,114.6 C450.2,119.933333 451.1,124.533333 452.9,128.4 C454.7,132.266667 457.2,135.466667 460.4,138 C463.6,140.533333 467.333333,142.4 471.6,143.6 C475.866667,144.8 480.466667,145.4 485.4,145.4 Z M496,126.6 C493.733333,126.6 491.533333,126.4 489.4,126 C487.266667,125.6 485.4,124.9 483.8,123.9 C482.2,122.9 480.933333,121.533333 480,119.8 C479.066667,118.066667 478.6,115.933333 478.6,113.4 C478.6,110.733333 479.066667,108.533333 480,106.8 C480.933333,105.066667 482.166667,103.633333 483.7,102.5 C485.233333,101.366667 487.033333,100.466667 489.1,99.8 C491.166667,99.1333333 493.266667,98.6 495.4,98.2 C497.666667,97.8 499.933333,97.4666667 502.2,97.2 C504.466667,96.9333333 506.633333,96.6 508.7,96.2 C510.766667,95.8 512.7,95.3 514.5,94.7 C516.3,94.1 517.8,93.2666667 519,92.2 L519,92.2 L519,102.8 C519,104.4 518.833333,106.533333 518.5,109.2 C518.166667,111.866667 517.266667,114.5 515.8,117.1 C514.333333,119.7 512.066667,121.933333 509,123.8 C505.933333,125.666667 501.6,126.6 496,126.6 Z M610.1,145.4 C623.833333,145.4 635.1,141.8 643.9,134.6 C652.7,127.4 658.033333,116.933333 659.9,103.2 L632.5,103.2 C631.566667,109.6 629.266667,114.7 625.6,118.5 C621.933333,122.3 616.7,124.2 609.9,124.2 C605.5,124.2 601.766667,123.2 598.7,121.2 C595.633333,119.2 593.2,116.633333 591.4,113.5 C589.6,110.366667 588.3,106.866667 587.5,103 C586.7,99.1333333 586.3,95.3333333 586.3,91.6 C586.3,87.7333333 586.7,83.8333333 587.5,79.9 C588.3,75.9666667 589.666667,72.3666667 591.6,69.1 C593.533333,65.8333333 596.033333,63.1666667 599.1,61.1 C602.166667,59.0333333 605.966667,58 610.5,58 C622.633333,58 629.633333,63.9333333 631.5,75.8 L659.3,75.8 C658.9,69.1333333 657.3,63.3666667 654.5,58.5 C651.7,53.6333333 648.066667,49.5666667 643.6,46.3 C639.133333,43.0333333 634.066667,40.6 628.4,39 C622.733333,37.4 616.833333,36.6 610.7,36.6 C602.3,36.6 594.833333,38 588.3,40.8 C581.766667,43.6 576.233333,47.5 571.7,52.5 C567.166667,57.5 563.733333,63.4333333 561.4,70.3 C559.066667,77.1666667 557.9,84.6 557.9,92.6 C557.9,100.333333 559.166667,107.433333 561.7,113.9 C564.233333,120.366667 567.766667,125.933333 572.3,130.6 C576.833333,135.266667 582.333333,138.9 588.8,141.5 C595.266667,144.1 602.366667,145.4 610.1,145.4 Z M696,142.8 L696,88.6 C696,78.0666667 697.733333,70.5 701.2,65.9 C704.666667,61.3 710.266667,59 718,59 C724.8,59 729.533333,61.1 732.2,65.3 C734.866667,69.5 736.2,75.8666667 736.2,84.4 L736.2,142.8 L764.6,142.8 L764.6,79.2 C764.6,72.8 764.033333,66.9666667 762.9,61.7 C761.766667,56.4333333 759.8,51.9666667 757,48.3 C754.2,44.6333333 750.366667,41.7666667 745.5,39.7 C740.633333,37.6333333 734.4,36.6 726.8,36.6 C721.466667,36.6 716,37.9666667 710.4,40.7 C704.8,43.4333333 700.2,47.8 696.6,53.8 L696,53.8 L696,-1.42108547e-14 L667.6,-1.42108547e-14 L667.6,142.8 L696,142.8 Z" id="MuTeach" fill="#1A96EC" fill-rule="nonzero"></path>
    </g>
</svg>